<svg xmlns="http://www.w3.org/2000/svg" viewBox="0 0 512 512" role="img" aria-label="WayPoint maskable icon">
  <rect width="512" height="512" fill="#0f766e"/>
  <circle cx="256" cy="220" r="128" fill="#ffffff"/>
  <path fill="#0f766e" d="M256 92c-72 0-130 58-130 130 0 96 130 206 130 206s130-110 130-206c0-72-58-130-130-130Zm0 178a52 52 0 1 1 0-104 52 52 0 0 1 0 104Z"/>
  <path fill="#f59e0b" d="M354 370c0 35-44 64-98 64s-98-29-98-64c0-14 7-27 20-38 28 31 62 59 78 72 16-13 50-41 78-72 13 11 20 24 20 38Z"/>
</svg>
